<?xml version="1.0" encoding="iso-8859-1"?>
<!-- Generator: Adobe Illustrator 18.1.1, SVG Export Plug-In . SVG Version: 6.00 Build 0)  -->
<svg xmlns="http://www.w3.org/2000/svg" xmlns:xlink="http://www.w3.org/1999/xlink" version="1.1" id="Capa_1" x="0px" y="0px" viewBox="0 0 309.63 309.63" style="enable-background:new 0 0 309.63 309.63;" xml:space="preserve" width="512px" height="512px">
<g>
	<g>
		<g>
			<g>
				<path d="M157.355,309.63c-6.728,0-11.351-5.221-11.863-5.82L52.686,191.656      c-2.458-2.274-8.784-9.154-6.391-15.164c1.42-3.568,5.124-5.379,11.014-5.379h47.837V12.765      c-0.234-1.496-0.424-4.906,1.947-7.985C109.54,1.61,113.723,0,119.526,0h73.536c5.211,0,8.213,1.969,9.823,3.628      c3.008,3.1,3.057,6.853,3.04,7.577v156.58h43.85c2.703,0,10.943,0,13.467,6.103c2.622,6.369-3.742,13.391-5.76,15.387      c-2.812,3.818-78.823,104.648-89.886,115.722C163.768,308.814,159.917,309.63,157.355,309.63z" fill="#FFFFFF"/>
			</g>
		</g>
	</g>
</g>
<g>
</g>
<g>
</g>
<g>
</g>
<g>
</g>
<g>
</g>
<g>
</g>
<g>
</g>
<g>
</g>
<g>
</g>
<g>
</g>
<g>
</g>
<g>
</g>
<g>
</g>
<g>
</g>
<g>
</g>
</svg>
